<?xml version="1.0" encoding="utf-8"?>
<!-- Generator: Adobe Illustrator 27.5.0, SVG Export Plug-In . SVG Version: 6.00 Build 0)  -->
<svg version="1.1" xmlns="http://www.w3.org/2000/svg" xmlns:xlink="http://www.w3.org/1999/xlink" x="0px" y="0px"
	 viewBox="0 0 750 500" style="enable-background:new 0 0 750 500;" xml:space="preserve">
<g id="BACKGROUND">
	<rect style="fill:#436CFC;" width="750" height="500"/>
</g>
<g id="OBJECTS">
	<g>
		<rect x="141.765" y="82.481" style="fill:#6D8DFD;" width="487.005" height="346.437"/>
		<g>
			<polygon style="fill:#D5DEFE;" points="358.077,285.32 348.858,274.784 430.383,203.458 436.328,232.435 515.535,161.994 
				519.769,192.035 561.06,153.101 570.665,163.286 509.685,220.786 505.318,189.815 427.492,259.028 421.502,229.83 			"/>
			<g>
				<polygon style="fill:#FFFFFF;" points="568.18,172.78 592.936,132.666 551.438,155.025 				"/>
			</g>
		</g>
		<g>
			<g>
				<rect x="197.58" y="110.947" style="fill:#ABBEFE;" width="112.562" height="28.994"/>
				
					<ellipse transform="matrix(0.3827 -0.9239 0.9239 0.3827 15.8997 274.6835)" style="fill:#6D8DFD;" cx="213.497" cy="125.444" rx="8.232" ry="8.232"/>
				<rect x="227.578" y="119.643" style="fill:#D5DEFE;" width="74.469" height="4.597"/>
				<rect x="227.578" y="126.648" style="fill:#D5DEFE;" width="74.469" height="4.597"/>
			</g>
			<g>
				<rect x="237.58" y="149.497" style="fill:#ABBEFE;" width="112.562" height="28.994"/>
				<circle style="fill:#6D8DFD;" cx="253.497" cy="163.994" r="8.232"/>
				<rect x="267.578" y="158.193" style="fill:#D5DEFE;" width="74.469" height="4.597"/>
				<rect x="267.578" y="165.198" style="fill:#D5DEFE;" width="74.469" height="4.597"/>
			</g>
			<g>
				<rect x="277.58" y="188.046" style="fill:#ABBEFE;" width="112.562" height="28.994"/>
				<circle style="fill:#6D8DFD;" cx="293.496" cy="202.544" r="8.232"/>
				<rect x="307.578" y="196.743" style="fill:#D5DEFE;" width="74.469" height="4.597"/>
				<rect x="307.578" y="203.748" style="fill:#D5DEFE;" width="74.469" height="4.597"/>
			</g>
		</g>
		<g>
			<path style="fill:#D5DEFE;" d="M417.53,165.1l-2.59,11.36c-15.12-3.43-26.4-16.96-26.4-33.12c0-16.82,12.22-30.79,28.28-33.5
				l1.95,11.5c-10.55,1.77-18.59,10.94-18.59,22C400.18,153.96,407.6,162.85,417.53,165.1z"/>
			<path style="fill:#ABBEFE;" d="M455.24,134.27l-11.23,3.11c-2.6-9.44-11.25-16.36-21.51-16.36c-1.27,0-2.52,0.11-3.73,0.32
				l-1.95-11.5c1.84-0.31,3.74-0.47,5.68-0.47C438.12,109.37,451.28,119.91,455.24,134.27z"/>
			<path style="fill:#97ADFD;" d="M456.47,143.34c0,4.84-1.01,9.44-2.84,13.61l-10.68-4.67c1.2-2.74,1.87-5.76,1.87-8.94
				c0-2.06-0.28-4.06-0.81-5.96l11.23-3.11C456.04,137.16,456.47,140.2,456.47,143.34z"/>
			<path style="fill:#587CFC;" d="M453.63,156.95c-5.25,11.99-17.21,20.36-31.13,20.36c-2.6,0-5.13-0.29-7.56-0.85l2.59-11.36
				c1.6,0.37,3.26,0.56,4.97,0.56c9.15,0,17.01-5.5,20.45-13.38L453.63,156.95z"/>
		</g>
		<g>
			<path style="fill:#D5DEFE;" d="M551.91,229.91l-7.38,33.15l-32.92,8.37c-0.68-2.68-1.04-5.48-1.04-8.37
				c0-18.75,15.2-33.96,33.96-33.96C547.06,229.1,549.53,229.38,551.91,229.91z"/>
			<path style="fill:#587CFC;" d="M570.93,284.44c-6.23,7.68-15.74,12.59-26.4,12.59c-9.96,0-18.92-4.29-25.13-11.12l25.13-22.85
				L570.93,284.44z"/>
			<path style="fill:#97ADFD;" d="M572.82,244.27l-28.29,18.79l7.38-33.15C560.6,231.83,568.04,237.09,572.82,244.27z"/>
			<path style="fill:#436CFC;" d="M578.5,263.06c0,8.1-2.84,15.54-7.57,21.38l-26.4-21.38l28.29-18.79
				C576.41,249.65,578.5,256.11,578.5,263.06z"/>
			<path style="fill:#ABBEFE;" d="M544.53,263.06l-25.13,22.85c-3.68-4.05-6.4-9-7.79-14.48L544.53,263.06z"/>
		</g>
		<g>
			<rect x="349.74" y="380.863" style="fill:#D5DEFE;" width="4" height="15.244"/>
			<rect x="362.498" y="374.387" style="fill:#D5DEFE;" width="4" height="21.72"/>
			<rect x="375.255" y="365.118" style="fill:#D5DEFE;" width="4" height="30.989"/>
			<rect x="388.013" y="359" style="fill:#D5DEFE;" width="4" height="37.107"/>
			<rect x="400.771" y="354.177" style="fill:#D5DEFE;" width="4" height="41.93"/>
			<rect x="413.529" y="334.554" style="fill:#D5DEFE;" width="4" height="61.553"/>
			<rect x="426.287" y="329.243" style="fill:#D5DEFE;" width="4" height="66.863"/>
			<rect x="439.045" y="335.616" style="fill:#D5DEFE;" width="4" height="60.491"/>
			<rect x="451.803" y="340.997" style="fill:#D5DEFE;" width="4" height="55.11"/>
			<rect x="464.56" y="347.512" style="fill:#D5DEFE;" width="4" height="48.595"/>
			<rect x="477.318" y="361.498" style="fill:#D5DEFE;" width="4" height="34.609"/>
			<rect x="490.076" y="377.553" style="fill:#D5DEFE;" width="4" height="18.553"/>
			<rect x="502.834" y="356.753" style="fill:#D5DEFE;" width="4" height="39.354"/>
			<rect x="515.592" y="344.02" style="fill:#D5DEFE;" width="4" height="52.087"/>
			<rect x="528.35" y="334.554" style="fill:#D5DEFE;" width="4" height="61.553"/>
			<rect x="541.108" y="345.773" style="fill:#D5DEFE;" width="4" height="50.334"/>
			<rect x="553.866" y="358.887" style="fill:#D5DEFE;" width="4" height="37.22"/>
			<rect x="566.623" y="370.063" style="fill:#D5DEFE;" width="4" height="26.043"/>
			<rect x="579.381" y="380.863" style="fill:#D5DEFE;" width="4" height="15.244"/>
		</g>
	</g>
	<g>
		<g>
			<circle style="fill:#FFB928;" cx="293.385" cy="79.619" r="19.153"/>
			<path style="fill:#F08200;" d="M301.69,80.688c-1.332-2.3-4.533-3.307-8.78-2.763c-2.55,0.326-4.427-0.063-5.021-1.041
				c-0.36-0.592-0.219-1.458,0.376-2.315c1.114-1.606,3.86-3.205,7.933-2.43l0.502-2.636c-1.912-0.364-3.613-0.3-5.087,0.031
				l-1.334-3.778l-2.531,0.893l1.342,3.803c-1.353,0.71-2.38,1.648-3.031,2.587c-1.218,1.755-1.392,3.714-0.465,5.239
				c0.692,1.14,2.607,2.956,7.656,2.31c3.076-0.394,5.363,0.147,6.116,1.447c0.434,0.749,0.281,1.741-0.41,2.654
				c-1.273,1.685-4.534,3.198-9.532,1.924l-0.663,2.601c2.756,0.702,5.108,0.691,7.043,0.259l1.335,3.781l2.531-0.893l-1.336-3.786
				c1.195-0.618,2.122-1.418,2.763-2.267C302.442,84.531,302.669,82.377,301.69,80.688z"/>
		</g>
		<g>
			
				<ellipse transform="matrix(0.5806 -0.8142 0.8142 0.5806 92.4954 608.5716)" style="fill:#FFB928;" cx="636.985" cy="214.501" rx="19.153" ry="19.153"/>
			<path style="fill:#F08200;" d="M644.982,216.987c-0.916-2.495-3.894-4.039-8.171-4.236c-2.568-0.119-4.35-0.826-4.766-1.892
				c-0.253-0.645,0.036-1.473,0.77-2.216c1.374-1.39,4.355-2.491,8.234-1.025l0.949-2.51c-1.82-0.689-3.507-0.919-5.016-0.848
				l-0.662-3.952l-2.647,0.443l0.666,3.978c-1.455,0.465-2.628,1.213-3.432,2.025c-1.503,1.518-2.012,3.418-1.362,5.08
				c0.485,1.242,2.058,3.361,7.143,3.596c3.098,0.143,5.257,1.07,5.775,2.48c0.298,0.813-0.024,1.763-0.862,2.544
				c-1.545,1.44-5.018,2.368-9.721,0.251l-1.102,2.448c2.594,1.167,4.912,1.562,6.893,1.47l0.662,3.955l2.647-0.443l-0.663-3.96
				c1.284-0.403,2.334-1.031,3.113-1.756C645.059,220.901,645.654,218.819,644.982,216.987z"/>
		</g>
		<g>
			
				<ellipse transform="matrix(0.7648 -0.6442 0.6442 0.7648 -33.5559 472.5219)" style="fill:#FFB928;" cx="630.423" cy="282.222" rx="19.153" ry="19.153"/>
			<path style="fill:#F08200;" d="M635.865,288.585c0.555-2.599-1.143-5.493-4.658-7.939c-2.11-1.469-3.241-3.017-3.025-4.14
				c0.13-0.681,0.815-1.228,1.832-1.465c1.904-0.444,5.013,0.212,7.514,3.52l2.141-1.618c-1.173-1.553-2.478-2.646-3.793-3.39
				l1.546-3.697l-2.476-1.035l-1.556,3.721c-1.479-0.381-2.87-0.374-3.984-0.115c-2.08,0.484-3.523,1.82-3.859,3.573
				c-0.251,1.31-0.049,3.941,4.128,6.849c2.545,1.772,3.879,3.707,3.565,5.176c-0.181,0.846-0.96,1.48-2.085,1.693
				c-2.074,0.395-5.508-0.67-8.36-4.968l-2.236,1.485c1.573,2.37,3.324,3.939,5.05,4.917l-1.547,3.699l2.476,1.035l1.549-3.704
				c1.301,0.343,2.525,0.371,3.57,0.173C633.846,291.94,635.458,290.495,635.865,288.585z"/>
		</g>
	</g>
	<g>
		<g>
			<circle style="fill:#FFFFFF;" cx="665.023" cy="343.144" r="2"/>
			<circle style="fill:#FFFFFF;" cx="666.358" cy="238.21" r="2"/>
			<circle style="fill:#6D8DFD;" cx="645.07" cy="372.303" r="4"/>
			<polygon style="fill:#060305;" points="659.953,396.435 669.028,402.903 670.092,391.811 			"/>
			<path style="fill:#FFFFFF;" d="M656.814,134.874c0.149-2.303-1.674-4.574-5.001-6.232c-1.997-0.996-3.164-2.183-3.12-3.175
				c0.026-0.601,0.546-1.158,1.389-1.489c1.579-0.621,4.333-0.449,6.898,2.077l1.635-1.66c-1.204-1.186-2.462-1.961-3.685-2.434
				l0.862-3.37l-2.258-0.577l-0.867,3.392c-1.319-0.141-2.513,0.041-3.436,0.404c-1.726,0.678-2.797,2.007-2.865,3.555
				c-0.051,1.157,0.454,3.392,4.409,5.363c2.41,1.201,3.799,2.696,3.715,3.997c-0.049,0.75-0.638,1.392-1.578,1.717
				c-1.732,0.601-4.816,0.119-7.807-3.214l-1.734,1.557c1.65,1.837,3.352,2.965,4.957,3.587l-0.862,3.373l2.258,0.577l0.864-3.377
				c1.161,0.131,2.216,0.001,3.088-0.302C655.501,138.01,656.705,136.565,656.814,134.874z"/>
			<polygon style="fill:#6D8DFD;" points="681.977,162.848 680.479,161.35 676.535,165.292 672.592,161.35 671.093,162.848 
				675.036,166.791 671.093,170.734 672.592,172.233 676.535,168.29 680.479,172.233 681.977,170.734 678.034,166.791 			"/>
		</g>
		<g>
			<circle style="fill:#FFFFFF;" cx="108.987" cy="216.091" r="2"/>
			<circle style="fill:#FFFFFF;" cx="99.781" cy="407.743" r="2"/>
			<circle style="fill:#6D8DFD;" cx="90.539" cy="386.83" r="4"/>
			<polygon style="fill:#6D8DFD;" points="101.859,146.105 101.859,157.249 111.51,151.677 			"/>
			<path style="fill:#060305;" d="M94.08,250.96c-1.127-2.013-3.892-2.929-7.586-2.511c-2.218,0.25-3.842-0.111-4.345-0.968
				c-0.305-0.518-0.171-1.268,0.356-2.005c0.988-1.38,3.392-2.733,6.918-2.008l0.469-2.282c-1.655-0.341-3.133-0.307-4.417-0.038
				l-1.109-3.297l-2.209,0.743l1.117,3.318c-1.183,0.599-2.087,1.4-2.664,2.207c-1.08,1.508-1.256,3.206-0.471,4.542
				c0.587,0.998,2.226,2.599,6.617,2.103c2.676-0.302,4.654,0.197,5.291,1.334c0.367,0.656,0.222,1.515-0.39,2.299
				c-1.127,1.446-3.977,2.718-8.3,1.548l-0.608,2.25c2.383,0.645,4.425,0.666,6.111,0.315l1.11,3.299l2.209-0.743l-1.112-3.304
				c1.046-0.521,1.86-1.204,2.428-1.933C94.684,254.305,94.908,252.439,94.08,250.96z"/>
			<polygon style="fill:#FFFFFF;" points="88.804,182.939 86.72,182.548 85.693,188.029 80.212,187.002 79.821,189.085 
				85.302,190.113 84.274,195.594 86.358,195.984 87.385,190.503 92.867,191.53 93.257,189.447 87.776,188.42 			"/>
		</g>
	</g>
	<g>
		<path style="fill:#FF9A7D;" d="M300.25,293.148c-21.632,2.15-42.488,4.825-64.121,6.974c0.738,15.476,3.314,31.462,8.496,46.063
			c3.36,9.466,10.203,17.651,18.925,22.634c8.721,4.983,19.248,6.722,29.108,4.809c9.173-1.78,17.549-6.566,24.77-12.496
			c7.221-5.93,13.405-13.002,19.552-20.039L300.25,293.148z"/>
		<g>
			<path style="fill:#FFFFFF;" d="M286.705,299.765c-4.283-11.433-11.427-21.781-20.6-29.839
				c-9.172-8.058-21.009-12.383-32.35-16.903c-9.488-3.781-19.111-7.557-28.598-11.339c-4.726,4.831-12.33,6.6-18.703,4.351
				c-2.316-0.817-4.49-2.145-6.053-4.038c-1.563-1.894-2.833-4.205-2.565-6.646c-19.046,6-44.542,13.647-51.895,21.5
				c3.155,3.615,5.879,7.503,9.033,11.118c-1.683,34.007-3.964,68.403-5.648,102.41l126.732,1.193
				c-1.854-21.222-3.879-44.23-5.733-65.453C264.722,303.675,272.309,302.211,286.705,299.765z"/>
			<path style="fill:none;stroke:#060305;stroke-width:1.5;stroke-linecap:round;stroke-linejoin:round;stroke-miterlimit:10;" d="
				M167.232,239.41c1.736,10.022,10.29,18.487,20.329,20.117c10.039,1.631,20.833-3.691,25.652-12.648"/>
			<path style="fill:none;stroke:#060305;stroke-width:1.5;stroke-linecap:round;stroke-linejoin:round;stroke-miterlimit:10;" d="
				M251.065,307.466c-0.492-15.866-0.985-31.732-1.477-47.598"/>
		</g>
		<g>
			<polygon style="fill:#060305;" points="257.136,369.901 267.578,428.917 124.522,428.917 129.572,370.489 			"/>
			<path style="fill:none;stroke:#FFFFFF;stroke-linecap:round;stroke-linejoin:round;stroke-miterlimit:10;" d="M129.116,379.237
				c43.06-0.504,86.12-1.009,129.179-1.513"/>
			<path style="fill:none;stroke:#FFFFFF;stroke-linecap:round;stroke-linejoin:round;stroke-miterlimit:10;" d="M198.172,378.836
				c0.767,7.464,1.534,14.929,2.301,22.393c2.824,0.113,5.41,0.065,8.233,0.178c0.748-7.596,1.358-15.006,2.106-22.602"/>
			<path style="fill:none;stroke:#FFFFFF;stroke-linecap:round;stroke-linejoin:round;stroke-miterlimit:10;" d="M245.856,377.79
				c3.258,10.975,9.367,21.092,17.563,29.085"/>
			<path style="fill:none;stroke:#FFFFFF;stroke-linecap:round;stroke-linejoin:round;stroke-miterlimit:10;" d="M126.18,415.696
				c13.007-7.962,22.433-21.55,25.335-36.522"/>
		</g>
		<g>
			<path style="fill:#436CFC;" d="M203.458,344.116h48.13l22.915-75.274c0.494-1.623,1.991-2.732,3.687-2.732h109.515
				c2.175,0,3.732,2.101,3.098,4.182l-23.886,78.466H366.9c-0.026,1.646-1.364,2.973-3.016,2.973H208.035
				c-2.823,0-5.413-1.567-6.723-4.068C200.467,346.05,201.637,344.116,203.458,344.116z"/>
			<circle style="fill:#6D8DFD;" cx="323.277" cy="309.041" r="4.547"/>
			<polyline style="fill:none;stroke:#FFFFFF;stroke-linecap:round;stroke-linejoin:round;stroke-miterlimit:10;" points="
				256.588,344.116 279.503,268.842 388.013,268.842 			"/>
			
				<circle style="fill:none;stroke:#FFFFFF;stroke-linecap:round;stroke-linejoin:round;stroke-miterlimit:10;" cx="246.129" cy="347.924" r="1.634"/>
			
				<circle style="fill:none;stroke:#FFFFFF;stroke-linecap:round;stroke-linejoin:round;stroke-miterlimit:10;" cx="209.585" cy="347.904" r="1.29"/>
			
				<line style="fill:none;stroke:#FFFFFF;stroke-linecap:round;stroke-linejoin:round;stroke-miterlimit:10;" x1="223.429" y1="348.758" x2="215.991" y2="348.758"/>
			
				<line style="fill:none;stroke:#FFFFFF;stroke-linecap:round;stroke-linejoin:round;stroke-miterlimit:10;" x1="234.843" y1="348.758" x2="227.406" y2="348.758"/>
		</g>
		<g>
			<path style="fill:#FF9A7D;" d="M239.022,317.28c1.833,2.06,2.874,4.721,4.483,6.96c1.609,2.239,4.072,4.217,6.82,3.999
				c-1.391-6.911-3.466-13.542-6.223-20.031c-7.497-3.123-15.652-6.002-23.554-7.88c-15.907,1.707-32.456,2.589-48.363,4.295
				c-7.66,0.822-14.894,3.662-22.381,5.478c0.333-5.06,0.733-10.049,1.067-15.109l-41.25-1.184
				c-2.551,13.703-5.103,27.406-7.654,41.109c-2.322,12.473,1.451,26.247,12.022,33.262c10.571,7.016,25.733,6.147,35.433-2.03
				c12.675-10.685,27.623-18.848,41.301-28.215c4.462-3.056,9.689-3.839,14.804-5.595c2.763,2.865,5.4,5.516,8.163,8.381
				c0.743,0.77,1.499,1.551,2.432,2.075c0.932,0.524,2.082,0.764,3.083,0.385c-2.397-4.625-5.012-9.481-7.41-14.106
				c2.118,0.038,4.147-0.287,6.265-0.249c1.503,1.625,2.13,3.588,2.856,5.679c0.726,2.091,1.385,4.242,2.614,6.082
				c1.229,1.841,3.158,3.364,5.367,3.497c-1.04-5.761-2.126-12.013-3.167-17.774c4.956,4.342,10.084,7.988,15.04,12.33
				c1.598,1.4,3.799,2.686,5.879,2.253c-4.97-8.808-10.147-17.849-16.239-25.922C233.343,315.864,236.09,316.387,239.022,317.28z"/>
			<path style="fill:none;stroke:#060305;stroke-width:1.5;stroke-linecap:round;stroke-linejoin:round;stroke-miterlimit:10;" d="
				M150.154,309.518c-8.391,2.669-16.783,5.338-25.174,8.007"/>
			<path style="fill:none;stroke:#060305;stroke-width:1.5;stroke-linecap:round;stroke-linejoin:round;stroke-miterlimit:10;" d="
				M201.99,330.222c1.398,0.961,2.797,1.922,4.195,2.882"/>
			<path style="fill:none;stroke:#060305;stroke-width:1.5;stroke-linecap:round;stroke-linejoin:round;stroke-miterlimit:10;" d="
				M191.369,337.03c-2.35,0.262-4.7,0.523-7.05,0.785"/>
			<path style="fill:none;stroke:#060305;stroke-width:1.5;stroke-linecap:round;stroke-linejoin:round;stroke-miterlimit:10;" d="
				M208.314,323.926c1.526,1.916,3.052,3.832,4.578,5.749"/>
			<path style="fill:none;stroke:#060305;stroke-width:1.5;stroke-linecap:round;stroke-linejoin:round;stroke-miterlimit:10;" d="
				M226.068,326.762c-0.393-1.372-0.786-2.745-1.179-4.117c-3.162-2.194-6.571-4.329-9.733-6.524"/>
			<path style="fill:none;stroke:#060305;stroke-width:1.5;stroke-linecap:round;stroke-linejoin:round;stroke-miterlimit:10;" d="
				M221.891,308.122c3.046,2.398,6.092,4.796,9.138,7.194"/>
		</g>
		<g>
			<g>
				<path style="fill:none;stroke:#060305;stroke-width:1.5;stroke-linecap:round;stroke-linejoin:round;stroke-miterlimit:10;" d="
					M175.448,179.848c0.568,0.728,1.137,1.456,1.705,2.184"/>
				<path style="fill:none;stroke:#060305;stroke-width:1.5;stroke-linecap:round;stroke-linejoin:round;stroke-miterlimit:10;" d="
					M192.978,176.377c4.841-5.134,12.081-7.905,19.113-7.314c7.032,0.591,13.708,4.531,17.624,10.401"/>
				<path style="fill:#060305;" d="M230.215,187.038c-1.948-7.351-7.892-13.51-15.17-15.716c-7.278-2.206-15.595-0.578-21.297,4.454
					c-7.319-1.294-15.054,2.433-19.336,8.508c-4.282,6.075-5.289,14.117-3.523,21.336l50.318-2.113
					c2.981,0.212,6.074-0.401,8.558-2.062c2.484-1.661,4.285-4.436,4.435-7.421C234.351,191.039,232.947,188.251,230.215,187.038z"
					/>
			</g>
			<g>
				<path style="fill:#FF9A7D;" d="M207.048,244.405c0.36-3.76,0.657-7.222,1.017-10.982c4.511-0.449,8.834-2.585,11.93-5.896
					c3.096-3.311,5.01-7.295,5.24-11.822c0.337-6.63,0.216-13.155-1.839-19.467c-1.416-4.351-4.391-7.584-8.546-9.502
					c-1.549,1.698-3.775,2.76-6.07,2.895c-2.294,0.135-4.84-0.629-6.577-2.134c-3.46,3.736-9.971,5.664-14.588,3.517
					c-1.822,3.834-3.618,8.152-5.44,11.986c-0.706-0.941-1.412-1.882-2.118-2.824c-3.724-0.611-8.198,0.702-10.576,3.632
					c-2.378,2.93-3.042,7.157-1.678,10.675c1.364,3.518,4.704,6.192,8.436,6.754c-0.672,5.729-1.394,11.825-2.067,17.555
					C178.123,255.144,200.097,258.945,207.048,244.405z"/>
				<g>
					
						<circle style="fill:none;stroke:#060305;stroke-width:1.5;stroke-linecap:round;stroke-linejoin:round;stroke-miterlimit:10;" cx="219.729" cy="207.953" r="6.977"/>
					
						<path style="fill:none;stroke:#060305;stroke-width:1.5;stroke-linecap:round;stroke-linejoin:round;stroke-miterlimit:10;" d="
						M204.061,209.347c0-3.853-3.124-6.977-6.977-6.977c-3.853,0-6.977,3.124-6.977,6.977c0,3.853,3.124,6.977,6.977,6.977
						C200.938,216.324,204.061,213.2,204.061,209.347z"/>
					
						<path style="fill:none;stroke:#060305;stroke-width:1.5;stroke-linecap:round;stroke-linejoin:round;stroke-miterlimit:10;" d="
						M204.31,206.912c0.795-1.41,2.359-2.353,3.978-2.398c1.618-0.044,3.232,0.811,4.103,2.176"/>
				</g>
				<g>
					<circle style="fill:#060305;" cx="198.58" cy="210.527" r="1.5"/>
					<circle style="fill:#060305;" cx="219.384" cy="209.453" r="1.5"/>
					
						<path style="fill:none;stroke:#060305;stroke-width:1.5;stroke-linecap:round;stroke-linejoin:round;stroke-miterlimit:10;" d="
						M209.027,208.533c0.244,2.29,0.488,4.579,0.732,6.869c-0.763,0.003-1.525,0.007-2.288,0.01"/>
					
						<path style="fill:none;stroke:#060305;stroke-width:1.5;stroke-linecap:round;stroke-linejoin:round;stroke-miterlimit:10;" d="
						M195.477,198.015c0.872-1.701,2.766-2.826,4.677-2.777c1.911,0.049,3.745,1.268,4.529,3.012"/>
					
						<path style="fill:none;stroke:#060305;stroke-width:1.5;stroke-linecap:round;stroke-linejoin:round;stroke-miterlimit:10;" d="
						M215.659,197.221c0.765-0.927,1.973-1.47,3.174-1.427c1.201,0.043,2.367,0.671,3.065,1.649"/>
					
						<path style="fill:none;stroke:#060305;stroke-width:1.5;stroke-linecap:round;stroke-linejoin:round;stroke-miterlimit:10;" d="
						M201.432,217.797c-0.059,0.986,0.535,1.981,1.432,2.396c0.897,0.415,2.039,0.225,2.753-0.459"/>
				</g>
				<g>
					
						<path style="fill:none;stroke:#060305;stroke-width:1.5;stroke-linecap:round;stroke-linejoin:round;stroke-miterlimit:10;" d="
						M189.44,229.223c5.549,3.643,12.419,5.222,19.001,4.367"/>
					
						<path style="fill:none;stroke:#060305;stroke-width:1.5;stroke-linecap:round;stroke-linejoin:round;stroke-miterlimit:10;" d="
						M172.679,205.403c2.174,1.152,4.348,2.304,6.522,3.456"/>
					
						<path style="fill:none;stroke:#060305;stroke-width:1.5;stroke-linecap:round;stroke-linejoin:round;stroke-miterlimit:10;" d="
						M176.141,221.664c1.354,0.106,2.708,0.212,4.062,0.318"/>
				</g>
				<path style="fill:none;stroke:#060305;stroke-width:1.5;stroke-linecap:round;stroke-linejoin:round;stroke-miterlimit:10;" d="
					M215.374,186.3c-0.947,3.438-4.229,6.096-7.788,6.309"/>
			</g>
		</g>
		<g>
			<path style="fill:#FFFFFF;" d="M152.52,271.411c-0.833-4.848-1.763-9.922-4.824-13.773c-3.483-4.382-9.611-6.472-15.046-5.13
				c-5.434,1.342-9.966,7.958-12.945,12.697c-6.377,10.145-11.128,21.309-14.019,32.937l51.606,1.066
				C155.703,289.943,154.111,280.677,152.52,271.411z"/>
			<path style="fill:none;stroke:#060305;stroke-width:1.5;stroke-linecap:round;stroke-linejoin:round;stroke-miterlimit:10;" d="
				M130.89,252.883c5.554-1.851,12.135-0.085,16.017,4.297c3.571,4.032,4.709,9.603,5.714,14.895
				c1.779,9.366,3.558,18.732,5.337,28.098"/>
		</g>
	</g>
</g>
</svg>
